<?xml version="1.0" encoding="UTF-8"?>
<svg xmlns="http://www.w3.org/2000/svg" version="1.1" viewBox="0 0 374.2 272.5">
  <defs>
    <style>
      .cls-1 {
        font-size: 0px;
      }

      .cls-1, .cls-2, .cls-3, .cls-4, .cls-5, .cls-6 {
        fill: #1d1d1b;
      }

      .cls-1, .cls-2, .cls-4, .cls-5 {
        font-family: MyriadPro-Regular, 'Myriad Pro';
      }

      .cls-2, .cls-3, .cls-6 {
        font-size: .1px;
      }

      .cls-3 {
        font-family: OCRAExtended, 'OCR A Extended';
      }

      .cls-4 {
        font-size: 0px;
      }

      .cls-7 {
        fill: none;
        stroke: #1d1d1b;
        stroke-miterlimit: 10;
        stroke-width: 1.1px;
      }

      .cls-5 {
        font-size: 0px;
      }

      .cls-6 {
        font-family: Onyx, Onyx;
      }
    </style>
  </defs>
  <g id="PERIMETRO">
    <path class="cls-7" d="M-1399,37.4c6.4-2.7,13.6-2.6,41.9,7.6,29.5,10.7,24.6,11.6,41.3,16.4,12.3,3.5,17.5,3.8,22.5,9.4,5.7,6.4,5.3,13.5,13.6,19.2.8.5,4.3,3,9.6,4.2,1.5.3,9,2,18.8-1.7,11.2-4.1,12.5-10.3,24.3-18.5,4-2.8,9.7-5.3,20.9-10.1,29.8-13,36.5-12.2,48-21.7,7.6-6.3,4.5-6.4,14.8-16,18-16.8,25-13.9,33.7-25.7,6-8.2,11.3-21.4,10.5-35.1-.4-6.7-2.4-13.6-1.1-24.8.9-8.5,2.9-12,4.6-14.3,2.4-3.1,4.5-3.8,5.9-6.8,1.4-2.8,1.2-5.7-.8-13.4-2.8-10.9-4.4-12.6-6.2-20.6-1.5-6.7-2.2-10.1-1.4-14.1.9-4.7,2.8-5.7,10.9-17.1,7.9-11.2,9.4-14.9,9.7-19.2.3-4.6-.9-8.1-1.2-8.8-2.3-6-6.7-8.2-10.3-11.6-7.9-7.5-12.4-21-9-29.1,2-4.8,5.6-4.8,20-12,21.7-10.9,22.5-15.4,35.7-18.8,10-2.6,18-2.2,24.2-1.8,18.2.9,31.9,6.8,38.5,10.1,11.9,5.9,24,12,31.2,24.8,7.9,14.2,1.4,22,7.3,45.4,2.8,11,6.5,18,13.8,31.9,18.6,35.4,40.8,58.5,40.1,59-.3.2-4.7-4.5-4.2-5,.7-.8,9.2,8.9,22.3,12,4.9,1.1,9.3,1.1,16.7.2,16-2.1,25-6.1,37.6-10,26.4-8.1,52.3-10.7,52.3-10.7,5.4-3.2,13.5-8,23.3-13.9,42.2-25.7,65.3-42.6,87.9-57.6,15.9-10.6,52.2-33.9,99.9-57.8,13.8-6.9,9.6-4.4,104.9-38.7,10.5-3.8,20-7.2,31.1-4.6,5.6,1.3,9.8,3.8,18.3,4.3,8,.5,8.9-1.4,16.9-1.8,0,0,7.2-.4,35.3,7.8,2.9,6.3,7.5,15.8,13.6,27.2,5.9,11,8.6,15.3,13.2,23.9,5.5,10.3,9.9,20,15.6,34.1C-255.2-51.2-231.6,6.4-226.9,28.5c0,0,9,41.8,28.6,68,.2.3,2.4,3.2,5.4,7.2,8.7,11.6,11.2,15.3,13.7,18.6,0,0,5,6.6,31.9,31.6,6-2.3,9.1-5.4,10.7-7.7,0,0,1.7-2.4,5.3-14.2,6.4-13.9,13.7-23.1,19.3-29,10-10.5,21.5-17.8,21.3-28.8,0-2.7-.9-5.7.8-9.3,2.7-5.8,10.2-9.8,10.2-9.8,7.8-5.3,9.6-10,9.9-13.1.6-6.9-5.8-9.9-4.5-17.1.4-2.4,1-1.2,6.4-11.4,1.7-3.2,6.5-12.8,4.9-9.6-.2-5.1,0-12.8,2.6-21.8,2.5-8.8,5.7-13,10-22.5,4.9-10.8,6.6-18.2,9-26.6C-27.3-115.4-4.6-139.5,6.3-183.6c.8-3.4,3.6-15.1,12.4-26.9,4.1-5.5,10-13.2,20.2-16.9,6.2-2.2,12.2-1.9,24.1-1.2,8.9.5,14.7.9,22.4,3.3,10.4,3.4,17.4,8.5,21,11.2,4,3,9.3,7.5,18.3,19,12.3,15.6,19.8,29,20.6,30.5,12.9,23.5,15.6,35,30.4,70.1,9.1,21.6,14.4,34.2,23.4,51.5,16.5,31.7,24.3,38.9,27.5,51.2.7,2.9,7.3,17,16.2,20.1,14.9,5.2,29.9,6.8,44.8,1.7,10.1-3.5,15.2-11,16-12,2.7-3.3,4.1-5.8,13.4-13.1,8.9-6.9,13.3-2.5,21.6-10.1,3.2-2.9,5.3-6.1,12.4-12.2,3.4-3,5.2-4.2,7.8-4.6,3-.5,5.5.4,11.7,3.1,6.5,2.8,10.2,4.4,11.6,5,5.1,2.2,12.7,2.3,27.8,2.5,10.1.1,21.4,0,21.4,0,22.6,13.4,36.3,15.2,44.8,14,2.9-.4,10.2-1.8,19.3.4,3.6.9,2.4,1.1,13.6,5.2,13.3,4.9,17.5,5.5,20.2,5.8,4.5.4,4.9-.1,7.3.7,6.2,2,7.4,7,12.3,11.8,6.4,6.2,9.8,3,19.9,9.1,6.9,4.2,10.8,9,17.2,16.9,7.1,8.8,7.5,11.7,13.6,19.9,0,0,7.7,10.4,19.5,20.4,7.8,6.7,17,12.4,42,22.4,0,0,23.4,9.4,71.9,24.4,14.5,4.6,23.1,1.9,27.4-.2,1.7-.8,2.9-2.6,6.4-4.1,12.2-5.1,17.5-9.1,17.5-9.1,0,0,10.5-14.9,11.2-21,.2-1.8-4.6-19-7-26.7s-21.2-38.6-21.2-38.6c-5.1-4.9-9.8-8-13.1-9.9-8.6-4.8-15.9-8.8-15.9-8.8-3.3-1.8-5.9-3.1-6.8-5.9-1-3.1.5-6.1,1.4-7.9,3.8-8.1-2.6,1.4,6.5-20.1,9.4-22.4,13.6-25.8,17.6-40.5,2-7.1,3-10.7,2.7-15.1-.6-8.9-4.8-12.3-7-26-1-6.3-.7-9,.3-11.3,1-2.2,2.3-3.6,10.2-9.1,8.2-5.8,12.5-8.7,17.7-11.1,4.9-2.2,7.4-3.4,11-3.7,1.4-.1,11.1-1,16.3,4.8,2.9,3.2,2.8,6.6,3.2,16.3,0,0,.6,11.6,1.8,24.9.5,5.2,1.5,15.6,5.6,27.2,5.8,16.6,8.9,22.6,14.6,32.7,5.3,9.6,12.9,30.6,15.3,43.3.2.8.7,3.5,2.1,6.9.5,1.2,2.1,4.9,4.6,7.8,3.1,3.5,7.1,5.1,12.1,6.4,10.2,2.7,24.7,6.5,41.4.4,7.7-2.9,6.7-4.5,16.1-7.9,7.3-2.7,15.6-5.7,25.8-4.4,12.6,1.6,20.9,9,23.7,11.5,12,10.9,14.7,24.9,16.4,33.5,2.8,14.5-2.3,16-1.9,36.5.3,17,3.5,15.9,4.8,36.5,1,15.9-.1,29.8-1,41.3-.7,8.4-2.2,24.5-2.2,24.5h0c-76.7-15.7-114.8-22.3-114.8-22.3-47.3-8.1-61.4-8.9-71.9-9.1-8.5-.2-28.4-.2-59.8,4-35.1,4.7-50.6,10.3-90.6,19.9-43.6,10.5-36.5,6.6-146.8,29.6-36.5,7.6-52.4,11.2-59.2,12.7-43.1,9.8-62.8,15.3-90.1,22-48.1,11.7-49.1,9.5-130.5,26.4-42.5,8.8-36.1,8.1-125.3,27.5-79.9,17.4-65.4,13.6-123.2,26.4-45.3,10-90.9,18-136,28.6-6.5,1.5-24.4,5.8-48.8,8.3,0,0-15.2,1.6-30.2,2-35,.9-62.4-5.2-95.2-10.5-48.5-7.8-41.4-2.9-95.8-11.2-44.2-6.8-42.6-9-85.4-15.6-47.4-7.3-84.9-10.1-109.7-11.8-37.7-2.7-45.7-1.8-77.1-3.6-54.6-3-85.1-8.5-140.1-15.9-38.2-5.1-16.9-1.6-175.2-19-108.2-11.9-163.1-18-204.7-24.3-43.1-6.6-122.4-19.6-122.4-19.6h0s-132.1-156.5-132.1-156.5h0c54.6-42.2,61.8-50.7,61.8-50.7,5.4-6.3,7.9-10.1,13.9-12.7Z"/>
  </g>
  <g id="NR_CODIGO" data-name="NR CODIGO">
    <text class="cls-2" transform="translate(7.3 151.9)"><tspan x="0" y="0">0802006</tspan></text>
    <text class="cls-2" transform="translate(16.2 142.4)"><tspan x="0" y="0">0802005</tspan></text>
    <text class="cls-6" transform="translate(32.8 132.1)"><tspan x="0" y="0">080 2024</tspan></text>
    <text class="cls-2" transform="translate(40.3 116.7)"><tspan x="0" y="0">0802003</tspan></text>
    <text class="cls-2" transform="translate(5.7 118.8)"><tspan x="0" y="0">0802029</tspan></text>
    <text class="cls-2" transform="translate(5.7 100.2)"><tspan x="0" y="0">0802030</tspan></text>
    <text class="cls-2" transform="translate(17.3 80.8)"><tspan x="0" y="0">0802031</tspan></text>
    <text class="cls-1" transform="translate(44.9 93.5) scale(1.1 1)"><tspan x="0" y="0">0802002</tspan></text>
    <text class="cls-2" transform="translate(337 170.6) scale(2.2 1)"><tspan x="0" y="0">0801024</tspan></text>
    <text class="cls-2" transform="translate(313.2 120) scale(2.2 1)"><tspan x="0" y="0">0801027</tspan></text>
    <text class="cls-2" transform="translate(304 107.1) scale(2.2 1)"><tspan x="0" y="0">0801028</tspan></text>
    <text class="cls-2" transform="translate(293.6 93.9) scale(2.2 1)"><tspan x="0" y="0">0801029</tspan></text>
    <text class="cls-2" transform="translate(281.3 81.2) scale(2.2 1)"><tspan x="0" y="0">0801030</tspan></text>
    <text class="cls-2" transform="translate(356 54.8) scale(2.2 1)"><tspan x="0" y="0">0801011</tspan></text>
    <text class="cls-2" transform="translate(260.9 74.6) scale(2.2 1)"><tspan x="0" y="0" xml:space="preserve">0801031             </tspan></text>
    <text class="cls-2" transform="translate(221.3 119.6) scale(2.2 1)"><tspan x="0" y="0">0803015</tspan></text>
    <text class="cls-2" transform="translate(243.6 142) scale(2.2 1)"><tspan x="0" y="0">0803016</tspan></text>
    <text class="cls-2" transform="translate(188.9 157.4) scale(1.6 1)"><tspan x="0" y="0">0803004</tspan></text>
    <text class="cls-2" transform="translate(199.3 146.6) scale(1.6 1)"><tspan x="0" y="0">0803003</tspan></text>
    <text class="cls-2" transform="translate(194.8 97.5) scale(1.6 1)"><tspan x="0" y="0">0803014</tspan></text>
    <text class="cls-2" transform="translate(146.8 58.7) scale(1.6 1)"><tspan x="0" y="0">0803012</tspan></text>
    <text class="cls-2" transform="translate(67.2 52.7) scale(1.6 1)"><tspan x="0" y="0" xml:space="preserve">0803010  </tspan></text>
    <text class="cls-2" transform="translate(83.7 154.6) scale(1.6 1)"><tspan x="0" y="0">0803043</tspan></text>
    <text class="cls-2" transform="translate(113.9 178) scale(1.6 1)"><tspan x="0" y="0">0803032</tspan></text>
    <text class="cls-2" transform="translate(130.4 204.4) scale(1.6 1)"><tspan x="0" y="0">0803023</tspan></text>
    <text class="cls-2" transform="translate(74.4 167.6) scale(1.6 1)"><tspan x="0" y="0">0803044</tspan></text>
    <text class="cls-2" transform="translate(105.4 190.3) scale(1.6 1)"><tspan x="0" y="0">0803033</tspan></text>
    <text class="cls-2" transform="translate(155.6 229.2) scale(.8 1)"><tspan x="0" y="0">0803009 </tspan></text>
    <text class="cls-2" transform="translate(123 217.2) scale(1.6 1)"><tspan x="0" y="0">0803024 </tspan></text>
    <text class="cls-2" transform="translate(59.8 147.2) scale(1.6 1)"><tspan x="0" y="0">0803051</tspan></text>
    <text class="cls-5" transform="translate(27.3 206.4) scale(1.6 1)"><tspan x="0" y="0">0803048</tspan></text>
    <text class="cls-2" transform="translate(57.4 236) scale(1.6 1)"><tspan x="0" y="0">0803037</tspan></text>
    <text class="cls-2" transform="translate(22.6 181.1) scale(1.6 1)"><tspan x="0" y="0">0803053</tspan></text>
    <text class="cls-2" transform="translate(44.9 242.1) scale(1.6 1)"><tspan x="0" y="0">0803038 </tspan></text>
    <text class="cls-2" transform="translate(39.2 199.2) scale(1.6 1)"><tspan x="0" y="0">0803047</tspan></text>
    <text class="cls-2" transform="translate(74.9 233.2) scale(1.6 1)"><tspan x="0" y="0">0803036</tspan></text>
    <text class="cls-2" transform="translate(52.5 190.3) scale(1.6 1)"><tspan x="0" y="0">0803046</tspan></text>
    <text class="cls-2" transform="translate(82.2 217.1) scale(1.6 1)"><tspan x="0" y="0">0803035</tspan></text>
    <text class="cls-2" transform="translate(100.3 236.8) scale(1.6 1)"><tspan x="0" y="0">0803026</tspan></text>
    <text class="cls-2" transform="translate(63.7 178.7) scale(2.3 1)"><tspan x="0" y="0">0803045</tspan></text>
    <text class="cls-2" transform="translate(94.4 203) scale(1.6 1)"><tspan x="0" y="0">0803034</tspan></text>
    <text class="cls-2" transform="translate(113.2 227.6) scale(1.6 1)"><tspan x="0" y="0">0803025</tspan></text>
    <text class="cls-2" transform="translate(42.6 165.9) scale(1.6 1)"><tspan x="0" y="0">0803052</tspan></text>
    <text class="cls-2" transform="translate(91 141.8) scale(1.6 1)"><tspan x="0" y="0">0803042</tspan></text>
    <text class="cls-2" transform="translate(127.5 152.4) scale(1.6 1)"><tspan x="0" y="0">0803030</tspan></text>
    <text class="cls-2" transform="translate(148.3 178.1) scale(1.6 1)"><tspan x="0" y="0">0803021</tspan></text>
    <text class="cls-2" transform="translate(180.8 187.2) scale(1.6 1)"><tspan x="0" y="0">0803006</tspan></text>
    <text class="cls-2" transform="translate(121.5 165.1) scale(1.6 1)"><tspan x="0" y="0">0803031</tspan></text>
    <text class="cls-2" transform="translate(140.3 192) scale(1.6 1)"><tspan x="0" y="0">0803022</tspan></text>
    <text class="cls-2" transform="translate(176.6 201.2) scale(1.6 1)"><tspan x="0" y="0">0803007</tspan></text>
    <text class="cls-2" transform="translate(170.9 212.9) scale(1.6 1)"><tspan x="0" y="0">0803008 </tspan></text>
    <text class="cls-2" transform="translate(71.3 123.6) scale(1.6 1)"><tspan x="0" y="0">0803050</tspan></text>
    <text class="cls-4" transform="translate(78.1 94.3) scale(1.2 1)"><tspan x="0" y="0">0803049</tspan></text>
    <text class="cls-2" transform="translate(242.6 100.4) scale(1.6 1)"><tspan x="0" y="0">0803055</tspan></text>
    <text class="cls-2" transform="translate(176.8 73.8) scale(1.6 1)"><tspan x="0" y="0">0803013</tspan></text>
    <text class="cls-2" transform="translate(118.2 47.3) scale(1.6 1)"><tspan x="0" y="0">0803011</tspan></text>
    <text class="cls-2" transform="translate(96.8 125.7) scale(1.6 1)"><tspan x="0" y="0">0803041</tspan></text>
    <text class="cls-2" transform="translate(132.6 137.5) scale(1.6 1)"><tspan x="0" y="0">0803029</tspan></text>
    <text class="cls-2" transform="translate(155.2 163.2) scale(1.6 1)"><tspan x="0" y="0">0803020</tspan></text>
    <text class="cls-2" transform="translate(97.4 111.9) scale(1.6 1)"><tspan x="0" y="0">0803040</tspan></text>
    <text class="cls-2" transform="translate(100.5 108.1) scale(1.6 1)"><tspan x="0" y="0">0803040</tspan></text>
    <text class="cls-2" transform="translate(139.7 105.1) scale(3.2 1)"><tspan x="0" y="0">0803027</tspan></text>
    <text class="cls-2" transform="translate(164.6 133.1) scale(1.6 1)"><tspan x="0" y="0">0803018</tspan></text>
    <text class="cls-2" transform="translate(136.6 122.2) scale(1.6 1)"><tspan x="0" y="0">0803028</tspan></text>
    <text class="cls-2" transform="translate(160.9 147.9) scale(1.6 1)"><tspan x="0" y="0">0803019</tspan></text>
    <text class="cls-2" transform="translate(102.4 90.6) scale(1.6 1)"><tspan x="0" y="0">0803039</tspan></text>
    <text class="cls-2" transform="translate(167.6 117.6) scale(2.1 1)"><tspan x="0" y="0">0803017</tspan></text>
    <text class="cls-2" transform="translate(215.9 167.5) scale(1.6 1)"><tspan x="0" y="0">0803001</tspan></text>
    <text class="cls-2" transform="translate(341.8 215.4) scale(1.6 1)"><tspan x="0" y="0">0803057</tspan></text>
    <text class="cls-2" transform="translate(271.7 131.5) scale(1.6 1)"><tspan x="0" y="0">0803054</tspan></text>
    <text class="cls-2" transform="translate(318.7 195.1) scale(2.8 1)"><tspan x="0" y="0">0803056</tspan></text>
    <text class="cls-2" transform="translate(206 188.2) scale(1.6 1)"><tspan x="0" y="0">0803002</tspan></text>
    <text class="cls-2" transform="translate(185.9 171.7) scale(1.6 1)"><tspan x="0" y="0">0803005</tspan></text>
    <text class="cls-2" transform="translate(335.1 105) scale(2.2 1)"><tspan x="0" y="0">0801012</tspan></text>
    <text class="cls-2" transform="translate(321.3 134.6) scale(2.2 1)"><tspan x="0" y="0">0801026 </tspan></text>
    <text class="cls-2" transform="translate(356.4 122.1) scale(2.2 1)"><tspan x="0" y="0">0801013</tspan></text>
    <text class="cls-2" transform="translate(353.3 187.1) scale(2.2 1)"><tspan x="0" y="0">0801032</tspan></text>
    <text class="cls-2" transform="translate(332.3 148.5) scale(2.2 1)"><tspan x="0" y="0">0801025</tspan></text>
    <text class="cls-2" transform="translate(371.9 205.5) scale(2.2 1)"><tspan x="0" y="0">0801033</tspan></text>
    <text class="cls-3" transform="translate(357.9 156.9)"><tspan x="0" y="0"> </tspan></text>
    <text class="cls-3" transform="translate(45.9 80.4)"><tspan x="0" y="0">0802001</tspan></text>
  </g>
</svg>