<?xml version="1.0" encoding="UTF-8"?><svg xmlns="http://www.w3.org/2000/svg" viewBox="0 0 462.7 302.23"><defs><style>.cls-1{font-size:.09px;}.cls-1,.cls-2,.cls-3,.cls-4,.cls-5,.cls-6,.cls-7,.cls-8{fill:#1d1d1b;}.cls-1,.cls-2,.cls-4,.cls-5,.cls-6,.cls-8{font-family:MyriadPro-Regular, 'Myriad Pro';}.cls-2,.cls-3,.cls-7{font-size:.1px;}.cls-3{font-family:OCRAExtended, 'OCR A Extended';}.cls-4{font-size:.05px;}.cls-5{font-size:.08px;}.cls-9{fill:none;stroke:#1d1d1b;stroke-miterlimit:10;stroke-width:1.12px;}.cls-6{font-size:.1px;}.cls-7{font-family:Onyx, Onyx;}.cls-8{font-size:.18px;}</style></defs><g id="PERIMETRO"><path class="cls-9" d="M-1010.38,39.84c6.4-2.69,13.6-2.59,41.93,7.64,29.53,10.67,24.55,11.59,41.26,16.37,12.26,3.51,17.54,3.75,22.53,9.35,5.71,6.41,5.34,13.47,13.63,19.24.77.54,4.35,2.96,9.64,4.2,1.47.34,8.99,1.97,18.84-1.65,11.18-4.12,12.46-10.26,24.35-18.52,4.05-2.81,9.67-5.25,20.93-10.14,29.83-12.96,36.48-12.23,48-21.74,7.65-6.31,4.48-6.44,14.78-16.03,18.02-16.79,25.03-13.91,33.67-25.69,5.98-8.15,11.34-21.43,10.48-35.11-.43-6.72-2.36-13.59-1.12-24.8.93-8.46,2.86-12,4.61-14.27,2.43-3.15,4.5-3.82,5.95-6.81,1.35-2.8,1.16-5.73-.8-13.42-2.78-10.9-4.43-12.58-6.17-20.58-1.47-6.73-2.2-10.1-1.41-14.14.93-4.72,2.82-5.7,10.87-17.05,7.92-11.17,9.43-14.91,9.72-19.16.32-4.63-.94-8.06-1.22-8.79-2.3-6.02-6.67-8.18-10.31-11.6-7.94-7.47-12.38-20.99-8.98-29.06,2.02-4.8,5.61-4.79,19.99-12.01,21.71-10.9,22.52-15.43,35.72-18.84,9.98-2.57,18-2.16,24.19-1.84,18.19.93,31.86,6.81,38.48,10.11,11.9,5.94,24.05,12.01,31.16,24.81,7.9,14.23,1.36,21.98,7.29,45.37,2.79,10.98,6.47,17.97,13.83,31.94,18.65,35.39,40.77,58.45,40.12,58.98-.29.24-4.68-4.52-4.22-5.05.65-.75,9.24,8.94,22.29,12,4.86,1.14,9.35,1.13,16.67.15,15.97-2.13,25-6.12,37.6-9.99,26.4-8.1,52.35-10.68,52.35-10.68,5.41-3.18,13.52-7.98,23.27-13.94,42.16-25.74,65.32-42.56,87.91-57.56,15.9-10.56,52.18-33.91,99.95-57.82,13.83-6.92,9.59-4.36,104.91-38.69,10.53-3.79,20.04-7.23,31.11-4.56,5.59,1.34,9.8,3.81,18.3,4.31,7.95.46,8.86-1.44,16.85-1.83,0,0,7.21-.36,35.34,7.83,2.91,6.29,7.48,15.82,13.59,27.25,5.87,10.98,8.65,15.26,13.22,23.87,5.47,10.32,9.87,19.97,15.64,34.1C133.43-48.81,156.97,8.79,161.72,30.96c0,0,8.95,41.8,28.64,67.97.22.3,2.38,3.16,5.37,7.15,8.67,11.61,11.24,15.34,13.69,18.58,0,0,4.96,6.55,31.89,31.55,6.04-2.26,9.07-5.38,10.7-7.72,0,0,1.68-2.41,5.27-14.21,6.35-13.93,13.7-23.13,19.28-28.98,10-10.49,21.52-17.8,21.26-28.8-.06-2.72-.85-5.68.83-9.27,2.71-5.78,10.22-9.77,10.22-9.77,7.81-5.3,9.59-9.95,9.85-13.14.55-6.88-5.78-9.86-4.48-17.09.43-2.38.95-1.16,6.36-11.45,1.67-3.17,6.48-12.77,4.86-9.58-.19-5.05.02-12.85,2.61-21.79,2.54-8.77,5.74-13.05,10.02-22.47,4.92-10.82,6.59-18.17,9.05-26.56,14.14-48.33,36.87-72.44,47.79-116.54.84-3.39,3.64-15.12,12.42-26.92,4.06-5.46,9.96-13.19,20.2-16.88,6.17-2.23,12.16-1.88,24.13-1.18,8.88.52,14.74.86,22.4,3.34,10.42,3.37,17.38,8.49,21.02,11.22,4.03,3.02,9.28,7.55,18.33,18.99,12.33,15.61,19.77,28.99,20.63,30.54,12.92,23.45,15.61,35.03,30.45,70.13,9.11,21.56,14.45,34.18,23.43,51.49,16.46,31.69,24.29,38.9,27.47,51.18.74,2.86,7.29,17.03,16.22,20.14,14.86,5.16,29.94,6.8,44.81,1.66,10.09-3.49,15.23-11.04,15.99-11.97,2.69-3.32,4.05-5.84,13.38-13.1,8.92-6.94,13.25-2.53,21.59-10.09,3.25-2.94,5.35-6.11,12.44-12.24,3.44-2.98,5.24-4.21,7.76-4.65,3.05-.53,5.49.39,11.74,3.05,6.49,2.76,10.19,4.45,11.56,5.04,5.05,2.17,12.71,2.3,27.81,2.48,10.1.12,21.37-.09,21.37-.09,22.64,13.44,36.34,15.16,44.8,14.01,2.92-.4,10.25-1.82,19.32.39,3.62.88,2.45,1.1,13.55,5.22,13.3,4.93,17.53,5.55,20.17,5.81,4.52.44,4.86-.15,7.28.65,6.21,2.05,7.44,7.03,12.3,11.78,6.39,6.25,9.77,3,19.88,9.12,6.9,4.17,10.8,9,17.18,16.89,7.1,8.77,7.5,11.7,13.57,19.9,0,0,7.67,10.36,19.53,20.43,7.84,6.66,16.97,12.38,42.05,22.45,0,0,23.4,9.39,71.91,24.44,14.46,4.63,23.09,1.9,27.39-.22,1.68-.83,2.86-2.63,6.37-4.1,12.24-5.13,17.49-9.12,17.5-9.12.03.01,10.51-14.85,11.22-21.02.2-1.76-4.59-18.98-6.96-26.65-.38-1.23-21.25-38.61-21.25-38.61-5.11-4.93-9.8-7.98-13.14-9.85-8.63-4.84-15.9-8.76-15.9-8.76-3.32-1.79-5.88-3.15-6.81-5.95-1.02-3.06.5-6.06,1.37-7.89,3.84-8.07-2.6,1.36,6.47-20.11,9.44-22.36,13.56-25.83,17.63-40.48,1.98-7.14,2.97-10.71,2.68-15.11-.58-8.94-4.8-12.32-7.02-25.99-1.03-6.33-.68-8.99.34-11.32.98-2.25,2.33-3.61,10.16-9.1,8.24-5.79,12.47-8.73,17.68-11.1,4.92-2.24,7.38-3.36,11.01-3.69,1.41-.13,11.07-1,16.26,4.79,2.86,3.19,2.75,6.6,3.22,16.31,0,0,.55,11.61,1.78,24.86.48,5.2,1.52,15.63,5.58,27.2,5.85,16.64,8.92,22.57,14.58,32.74,5.32,9.56,12.92,30.63,15.33,43.35.15.8.65,3.52,2.06,6.86.51,1.22,2.09,4.9,4.65,7.76,3.09,3.45,7.06,5.09,12.11,6.42,10.17,2.68,24.74,6.53,41.35.36,7.71-2.87,6.66-4.47,16.06-7.91,7.34-2.68,15.57-5.69,25.75-4.37,12.6,1.63,20.92,8.96,23.67,11.46,12.04,10.91,14.72,24.9,16.36,33.5,2.77,14.49-2.33,16-1.93,36.54.33,16.99,3.5,15.85,4.75,36.47.96,15.88-.12,29.77-1.02,41.29-.65,8.39-2.19,24.49-2.19,24.5h0c-76.67-15.73-114.82-22.27-114.82-22.27-47.32-8.12-61.37-8.89-71.94-9.1-8.49-.17-28.44-.23-59.76,4.01-35.1,4.75-50.58,10.32-90.56,19.94-43.63,10.51-36.53,6.61-146.82,29.6-36.46,7.6-52.45,11.2-59.21,12.73-43.06,9.76-62.76,15.34-90.07,21.99-48.12,11.72-49.11,9.55-130.51,26.39-42.53,8.8-36.07,8.11-125.27,27.52-79.88,17.39-65.36,13.65-123.17,26.38-45.25,9.96-90.93,18-136.05,28.56-6.46,1.51-24.36,5.76-48.8,8.32,0,0-15.2,1.6-30.21,1.97-35.02.88-62.44-5.24-95.18-10.5-48.47-7.8-41.43-2.92-95.78-11.23-44.2-6.75-42.56-9.01-85.37-15.64-47.4-7.33-84.94-10.06-109.75-11.81-37.74-2.66-45.74-1.83-77.11-3.55-54.56-2.99-85.07-8.48-140.09-15.85-38.23-5.13-16.94-1.6-175.18-18.99-108.17-11.89-163.11-17.96-204.75-24.3-43.08-6.56-122.39-19.61-122.4-19.61h0s-132.08-156.53-132.08-156.53h0c54.62-42.25,61.82-50.65,61.82-50.65,5.43-6.35,7.91-10.14,13.92-12.66Z"/></g><g id="NR_CODIGO"><text class="cls-2" transform="translate(341.68 187.76) scale(.74 1)"><tspan x="0" y="0">0802009</tspan></text><text class="cls-2" transform="translate(366.05 174.61)"><tspan x="0" y="0">0802008</tspan></text><text class="cls-2" transform="translate(281.31 180.57)"><tspan x="0" y="0">0802011</tspan></text><text class="cls-2" transform="translate(151.62 262.08)"><tspan x="0" y="0">0802016</tspan></text><text class="cls-2" transform="translate(101.26 299.79)"><tspan x="0" y="0">0805001</tspan></text><text class="cls-2" transform="translate(64.22 275.29) rotate(-.78) scale(1.04 1)"><tspan x="0" y="0">0805011</tspan></text><text class="cls-2" transform="translate(80.83 244.92) rotate(-.78) scale(1.04 1)"><tspan x="0" y="0" xml:space="preserve">0805003    </tspan></text><text class="cls-2" transform="translate(59.8 226.15) rotate(-.78) scale(1.7 1)"><tspan x="0" y="0">0805004</tspan></text><text class="cls-2" transform="translate(35.35 297.69) rotate(-.78) scale(1.04 1)"><tspan x="0" y="0">0805014</tspan></text><text class="cls-5" transform="translate(94 269.22) scale(1.24 1)"><tspan x="0" y="0">0805002</tspan></text><text class="cls-2" transform="translate(57.61 261.52) rotate(-.78)"><tspan x="0" y="0">0805010</tspan></text><text class="cls-2" transform="translate(68 290.89) rotate(-.78)"><tspan x="0" y="0">0805012</tspan></text><text class="cls-2" transform="translate(32 246.48) rotate(-.78)"><tspan x="0" y="0">0805008</tspan></text><text class="cls-2" transform="translate(24.24 279.67) rotate(-.78)"><tspan x="0" y="0">0805015</tspan></text><text class="cls-2" transform="translate(18.2 241.82) rotate(-.78)"><tspan x="0" y="0">0805007</tspan></text><text class="cls-2" transform="translate(102.59 21.59)"><tspan x="0" y="0">0805098</tspan></text><text class="cls-2" transform="translate(59.69 15.58)"><tspan x="0" y="0">0805080</tspan></text><text class="cls-4" transform="translate(58.83 46.64) scale(1.83 1)"><tspan x="0" y="0">0805079</tspan></text><text class="cls-2" transform="translate(15.04 96.23)"><tspan x="0" y="0">0805077</tspan></text><text class="cls-2" transform="translate(85.22 71.39)"><tspan x="0" y="0">0805100 </tspan></text><text class="cls-8" transform="translate(99.49 50.2) scale(.55 1)"><tspan x="0" y="0">0805099</tspan></text><text class="cls-2" transform="translate(7.85 11.67) rotate(7.79)"><tspan x="0" y="0">0805074</tspan></text><text class="cls-2" transform="translate(17.49 65.05) rotate(8.57)"><tspan x="0" y="0">0805076</tspan></text><text class="cls-2" transform="translate(4.27 123.8) rotate(8.57)"><tspan x="0" y="0">0805078</tspan></text><text class="cls-2" transform="translate(13.79 37.35) rotate(8.57)"><tspan x="0" y="0">0805075</tspan></text><text class="cls-2" transform="translate(45.29 252.98) rotate(-.78)"><tspan x="0" y="0">0805009 </tspan></text><text class="cls-2" transform="translate(34.74 213.99) rotate(-61.01)"><tspan x="0" y="0">0805005</tspan></text><text class="cls-2" transform="translate(14.28 209.76) rotate(-61.01)"><tspan x="0" y="0">0805006</tspan></text><text class="cls-3" transform="translate(56.42 108.27) scale(.77 1)"><tspan x="0" y="0">0802022</tspan></text><text class="cls-2" transform="translate(131.41 173.77) scale(.75 1)"><tspan x="0" y="0">0802023</tspan></text><text class="cls-2" transform="translate(172.44 175.77) scale(.77 1)"><tspan x="0" y="0">0802024</tspan></text><text class="cls-2" transform="translate(81.4 191.74) scale(.77 1)"><tspan x="0" y="0">0802020</tspan></text><text class="cls-2" transform="translate(69.15 170.62) scale(.77 1)"><tspan x="0" y="0">0802021</tspan></text><text class="cls-2" transform="translate(96.02 201.08) scale(.77 1)"><tspan x="0" y="0">0802019</tspan></text><text class="cls-2" transform="translate(121.8 218.63) scale(.77 1)"><tspan x="0" y="0">0802018</tspan></text><text class="cls-2" transform="translate(160.5 219.83) scale(.77 1)"><tspan x="0" y="0">0802017</tspan></text><text class="cls-2" transform="translate(129.5 262.08) scale(.77 1)"><tspan x="0" y="0">0802015</tspan></text><text class="cls-2" transform="translate(202.76 255.03) scale(.77 1)"><tspan x="0" y="0">0802032</tspan></text><text class="cls-2" transform="translate(179.93 262.43) scale(.77 1)"><tspan x="0" y="0">0802025</tspan></text><text class="cls-2" transform="translate(287.57 169.41)"><tspan x="0" y="0">0802010</tspan></text><text class="cls-2" transform="translate(293.94 157.61)"><tspan x="0" y="0">0802012</tspan></text><text class="cls-2" transform="translate(301.37 146.36)"><tspan x="0" y="0">0802013</tspan></text><text class="cls-2" transform="translate(307.72 134.74)"><tspan x="0" y="0">0802014</tspan></text><text class="cls-2" transform="translate(316.48 120.4)"><tspan x="0" y="0">0802026</tspan></text><text class="cls-2" transform="translate(339.13 143.13)"><tspan x="0" y="0">0802028</tspan></text><text class="cls-2" transform="translate(340.92 106.08)"><tspan x="0" y="0">0802027</tspan></text><text class="cls-2" transform="translate(383.58 163.97)"><tspan x="0" y="0">0802007</tspan></text><text class="cls-2" transform="translate(395.94 154.3)"><tspan x="0" y="0">0802006</tspan></text><text class="cls-2" transform="translate(404.79 144.84)"><tspan x="0" y="0">0802005</tspan></text><text class="cls-7" transform="translate(421.4 134.49)"><tspan x="0" y="0">080 2024</tspan></text><text class="cls-2" transform="translate(428.94 119.12)"><tspan x="0" y="0">0802003</tspan></text><text class="cls-2" transform="translate(394.27 121.27)"><tspan x="0" y="0">0802029</tspan></text><text class="cls-2" transform="translate(394.27 102.59)"><tspan x="0" y="0">0802030</tspan></text><text class="cls-2" transform="translate(405.95 83.23)"><tspan x="0" y="0">0802031</tspan></text><text class="cls-1" transform="translate(433.55 95.88) scale(1.06 1)"><tspan x="0" y="0">0802002</tspan></text><text class="cls-2" transform="translate(455.8 55.14) scale(1.64 1)"><tspan x="0" y="0" xml:space="preserve">0803010  </tspan></text><text class="cls-2" transform="translate(448.41 149.66) scale(1.64 1)"><tspan x="0" y="0">0803051</tspan></text><text class="cls-6" transform="translate(415.93 208.79) scale(1.64 1)"><tspan x="0" y="0">0803048</tspan></text><text class="cls-2" transform="translate(446.05 238.41) scale(1.64 1)"><tspan x="0" y="0">0803037</tspan></text><text class="cls-2" transform="translate(411.19 183.54) scale(1.64 1)"><tspan x="0" y="0">0803053</tspan></text><text class="cls-2" transform="translate(433.49 244.57) scale(1.64 1)"><tspan x="0" y="0">0803038 </tspan></text><text class="cls-2" transform="translate(427.76 201.67) scale(1.64 1)"><tspan x="0" y="0">0803047</tspan></text><text class="cls-2" transform="translate(441.13 192.73) scale(1.64 1)"><tspan x="0" y="0">0803046</tspan></text><text class="cls-2" transform="translate(452.27 181.08) scale(2.31 1)"><tspan x="0" y="0">0803045</tspan></text><text class="cls-2" transform="translate(431.23 168.37) scale(1.64 1)"><tspan x="0" y="0">0803052</tspan></text><text class="cls-2" transform="translate(459.87 126.06) scale(1.64 1)"><tspan x="0" y="0">0803050</tspan></text><text/><text/><text class="cls-3" transform="translate(205.78 161.61)"><tspan x="0" y="0">Lorem ipsum</tspan></text><text class="cls-3" transform="translate(434.52 82.8)"><tspan x="0" y="0">0802001</tspan></text></g></svg>