<?xml version="1.0" encoding="UTF-8"?><svg xmlns="http://www.w3.org/2000/svg" viewBox="0 0 449.41 610.65"><defs><style>.cls-1{font-size:.05px;}.cls-1,.cls-2,.cls-3,.cls-4,.cls-5,.cls-6,.cls-7,.cls-8,.cls-9,.cls-10,.cls-11,.cls-12,.cls-13,.cls-14{fill:#1d1d1b;}.cls-1,.cls-2,.cls-3,.cls-4,.cls-5,.cls-6,.cls-8,.cls-9,.cls-10,.cls-11,.cls-12,.cls-13,.cls-14{font-family:MyriadPro-Regular, 'Myriad Pro';}.cls-2{font-size:.27px;}.cls-3{font-size:.07px;}.cls-4{font-size:.1px;}.cls-5{font-size:.06px;}.cls-6,.cls-7{font-size:.1px;}.cls-7{font-family:OCRAExtended, 'OCR A Extended';}.cls-8{font-size:3.57px;}.cls-9{font-size:1.09px;}.cls-10{font-size:.05px;}.cls-11{font-size:1.65px;}.cls-12{font-size:.08px;}.cls-15{fill:none;stroke:#1d1d1b;stroke-miterlimit:10;stroke-width:1.12px;}.cls-13{font-size:.31px;}.cls-14{font-size:.18px;}</style></defs><g id="PERIMETRO"><path class="cls-15" d="M-699.4,292.58c6.4-2.69,13.6-2.59,41.93,7.64,29.53,10.67,24.55,11.59,41.26,16.37,12.26,3.51,17.54,3.75,22.53,9.35,5.71,6.41,5.34,13.47,13.63,19.24.77.54,4.35,2.96,9.64,4.2,1.47.34,8.99,1.97,18.84-1.65,11.18-4.12,12.46-10.26,24.35-18.52,4.05-2.81,9.67-5.25,20.93-10.14,29.83-12.96,36.48-12.23,48-21.74,7.65-6.31,4.48-6.44,14.78-16.03,18.02-16.79,25.03-13.91,33.67-25.69,5.98-8.15,11.34-21.43,10.48-35.11-.43-6.72-2.36-13.59-1.12-24.8.93-8.46,2.86-12,4.61-14.27,2.43-3.15,4.5-3.82,5.95-6.81,1.35-2.8,1.16-5.73-.8-13.42-2.78-10.9-4.43-12.58-6.17-20.58-1.47-6.73-2.2-10.1-1.41-14.14.93-4.72,2.82-5.7,10.87-17.05,7.92-11.17,9.43-14.91,9.72-19.16.32-4.63-.94-8.06-1.22-8.79-2.3-6.02-6.67-8.18-10.31-11.6-7.94-7.47-12.38-20.99-8.98-29.06,2.02-4.8,5.61-4.79,19.99-12.01,21.71-10.9,22.52-15.43,35.72-18.84,9.98-2.57,18-2.16,24.19-1.84,18.19.93,31.86,6.81,38.48,10.11,11.9,5.94,24.05,12.01,31.16,24.81,7.9,14.23,1.36,21.98,7.29,45.37,2.79,10.98,6.47,17.97,13.83,31.94,18.65,35.39,40.77,58.45,40.12,58.98-.29.24-4.68-4.52-4.22-5.05.65-.75,9.24,8.94,22.29,12,4.86,1.14,9.35,1.13,16.67.15,15.97-2.13,25-6.12,37.6-9.99,26.4-8.1,52.35-10.68,52.35-10.68,5.41-3.18,13.52-7.98,23.27-13.94C2.67,126.11,25.83,109.29,48.42,94.29c15.9-10.56,52.18-33.91,99.95-57.82,13.83-6.92,9.59-4.36,104.91-38.69,10.53-3.79,20.04-7.23,31.11-4.56,5.59,1.34,9.8,3.81,18.3,4.31,7.95.46,8.86-1.44,16.85-1.83,0,0,7.21-.36,35.34,7.83,2.91,6.29,7.48,15.82,13.59,27.25,5.87,10.98,8.65,15.26,13.22,23.87,5.47,10.32,9.87,19.97,15.64,34.1,47.08,115.19,70.61,172.78,75.36,194.96,0,0,8.95,41.8,28.64,67.97.22.3,2.38,3.16,5.37,7.15,8.67,11.61,11.24,15.34,13.69,18.58,0,0,4.96,6.55,31.89,31.55,6.04-2.26,9.07-5.38,10.7-7.72,0,0,1.68-2.41,5.27-14.21,6.35-13.93,13.7-23.13,19.28-28.98,10-10.49,21.52-17.8,21.26-28.8-.06-2.72-.85-5.68.83-9.27,2.71-5.78,10.22-9.77,10.22-9.77,7.81-5.3,9.59-9.95,9.85-13.14.55-6.88-5.78-9.86-4.48-17.09.43-2.38.95-1.16,6.36-11.45,1.67-3.17,6.48-12.77,4.86-9.58-.19-5.05.02-12.85,2.61-21.79,2.54-8.77,5.74-13.05,10.02-22.47,4.92-10.82,6.59-18.17,9.05-26.56,14.14-48.33,36.87-72.44,47.79-116.54.84-3.39,3.64-15.12,12.42-26.92,4.06-5.46,9.96-13.19,20.2-16.88,6.17-2.23,12.16-1.88,24.13-1.18,8.88.52,14.74.86,22.4,3.34,10.42,3.37,17.38,8.49,21.02,11.22,4.03,3.02,9.28,7.55,18.33,18.99,12.33,15.61,19.77,28.99,20.63,30.54,12.92,23.45,15.61,35.03,30.45,70.13,9.11,21.56,14.45,34.18,23.43,51.49,16.46,31.69,24.29,38.9,27.47,51.18.74,2.86,7.29,17.03,16.22,20.14,14.86,5.16,29.94,6.8,44.81,1.66,10.09-3.49,15.23-11.04,15.99-11.97,2.69-3.32,4.05-5.84,13.38-13.1,8.92-6.94,13.25-2.53,21.59-10.09,3.25-2.94,5.35-6.11,12.44-12.24,3.44-2.98,5.24-4.21,7.76-4.65,3.05-.53,5.49.39,11.74,3.05,6.49,2.76,10.19,4.45,11.56,5.04,5.05,2.17,12.71,2.3,27.81,2.48,10.1.12,21.37-.09,21.37-.09,22.64,13.44,36.34,15.16,44.8,14.01,2.92-.4,10.25-1.82,19.32.39,3.62.88,2.45,1.1,13.55,5.22,13.3,4.93,17.53,5.55,20.17,5.81,4.52.44,4.86-.15,7.28.65,6.21,2.05,7.44,7.03,12.3,11.78,6.39,6.25,9.77,3,19.88,9.12,6.9,4.17,10.8,9,17.18,16.89,7.1,8.77,7.5,11.7,13.57,19.9,0,0,7.67,10.36,19.53,20.43,7.84,6.66,16.97,12.38,42.05,22.45,0,0,23.4,9.39,71.91,24.44,14.46,4.63,23.09,1.9,27.39-.22,1.68-.83,2.86-2.63,6.37-4.1,12.24-5.13,17.49-9.12,17.5-9.12.03.01,10.51-14.85,11.22-21.02.2-1.76-4.59-18.98-6.96-26.65-.38-1.23-21.25-38.61-21.25-38.61-5.11-4.93-9.8-7.98-13.14-9.85-8.63-4.84-15.9-8.76-15.9-8.76-3.32-1.79-5.88-3.15-6.81-5.95-1.02-3.06.5-6.06,1.37-7.89,3.84-8.07-2.6,1.36,6.47-20.11,9.44-22.36,13.56-25.83,17.63-40.48,1.98-7.14,2.97-10.71,2.68-15.11-.58-8.94-4.8-12.32-7.02-25.99-1.03-6.33-.68-8.99.34-11.32.98-2.25,2.33-3.61,10.16-9.1,8.24-5.79,12.47-8.73,17.68-11.1,4.92-2.24,7.38-3.36,11.01-3.69,1.41-.13,11.07-1,16.26,4.79,2.86,3.19,2.75,6.6,3.22,16.31,0,0,.55,11.61,1.78,24.86.48,5.2,1.52,15.63,5.58,27.2,5.85,16.64,8.92,22.57,14.58,32.74,5.32,9.56,12.92,30.63,15.33,43.35.15.8.65,3.52,2.06,6.86.51,1.22,2.09,4.9,4.65,7.76,3.09,3.45,7.06,5.09,12.11,6.42,10.17,2.68,24.74,6.53,41.35.36,7.71-2.87,6.66-4.47,16.06-7.91,7.34-2.68,15.57-5.69,25.75-4.37,12.6,1.63,20.92,8.96,23.67,11.46,12.04,10.91,14.72,24.9,16.36,33.5,2.77,14.49-2.33,16-1.93,36.54.33,16.99,3.5,15.85,4.75,36.47.96,15.88-.12,29.77-1.02,41.29-.65,8.39-2.19,24.49-2.19,24.5h0c-76.67-15.73-114.82-22.27-114.82-22.27-47.32-8.12-61.37-8.89-71.94-9.1-8.49-.17-28.44-.23-59.76,4.01-35.1,4.75-50.58,10.32-90.56,19.94-43.63,10.51-36.53,6.61-146.82,29.6-36.46,7.6-52.45,11.2-59.21,12.73-43.06,9.76-62.76,15.34-90.07,21.99-48.12,11.72-49.11,9.55-130.51,26.39-42.53,8.8-36.07,8.11-125.27,27.52-79.88,17.39-65.36,13.65-123.17,26.38-45.25,9.96-90.93,18-136.05,28.56-6.46,1.51-24.36,5.76-48.8,8.32,0,0-15.2,1.6-30.21,1.97-35.02.88-62.44-5.24-95.18-10.5-48.47-7.8-41.43-2.92-95.78-11.23-44.2-6.75-42.56-9.01-85.37-15.64-47.4-7.33-84.94-10.06-109.75-11.81-37.74-2.66-45.74-1.83-77.11-3.55-54.56-2.99-85.07-8.48-140.09-15.85-38.23-5.13-16.94-1.6-175.18-18.99-108.17-11.89-163.11-17.96-204.75-24.3-43.08-6.56-122.39-19.61-122.4-19.61h0s-132.08-156.53-132.08-156.53h0c54.62-42.25,61.82-50.65,61.82-50.65,5.43-6.35,7.91-10.14,13.92-12.66Z"/></g><g id="NR_CODIGO"><text class="cls-6" transform="translate(412.24 552.54)"><tspan x="0" y="0">0805001</tspan></text><text class="cls-6" transform="translate(378.87 560.85) rotate(-.78) scale(1.04 1)"><tspan x="0" y="0">0805013</tspan></text><text class="cls-6" transform="translate(375.2 528.03) rotate(-.78) scale(1.04 1)"><tspan x="0" y="0">0805011</tspan></text><text class="cls-6" transform="translate(391.81 497.67) rotate(-.78) scale(1.04 1)"><tspan x="0" y="0" xml:space="preserve">0805003    </tspan></text><text class="cls-6" transform="translate(370.78 478.89) rotate(-.78) scale(1.7 1)"><tspan x="0" y="0">0805004</tspan></text><text class="cls-6" transform="translate(346.33 550.43) rotate(-.78) scale(1.04 1)"><tspan x="0" y="0">0805014</tspan></text><text class="cls-12" transform="translate(404.98 521.97) scale(1.24 1)"><tspan x="0" y="0">0805002</tspan></text><text class="cls-6" transform="translate(368.59 514.26) rotate(-.78)"><tspan x="0" y="0">0805010</tspan></text><text class="cls-6" transform="translate(378.98 543.64) rotate(-.78)"><tspan x="0" y="0">0805012</tspan></text><text class="cls-6" transform="translate(342.98 499.22) rotate(-.78)"><tspan x="0" y="0">0805008</tspan></text><text class="cls-6" transform="translate(335.21 532.41) rotate(-.78)"><tspan x="0" y="0">0805015</tspan></text><text class="cls-6" transform="translate(329.18 494.56) rotate(-.78)"><tspan x="0" y="0">0805007</tspan></text><text class="cls-6" transform="translate(171.13 368.62)"><tspan x="0" y="0">0805020 </tspan></text><text class="cls-6" transform="translate(134.45 306.57)"><tspan x="0" y="0">0805022</tspan></text><text class="cls-6" transform="translate(80.8 232.72)"><tspan x="0" y="0">0805026</tspan></text><text class="cls-6" transform="translate(123.27 275.56)"><tspan x="0" y="0">0805023</tspan></text><text class="cls-4" transform="translate(91.25 180.47) scale(1.05 1)"><tspan x="0" y="0">0805029</tspan></text><text class="cls-6" transform="translate(102.87 158.9)"><tspan x="0" y="0">0805057</tspan></text><text class="cls-6" transform="translate(137.41 121.85)"><tspan x="0" y="0">0805064</tspan></text><text class="cls-6" transform="translate(192.02 138.3)"><tspan x="0" y="0">0805053</tspan></text><text class="cls-6" transform="translate(253.22 197.04) rotate(-.78)"><tspan x="0" y="0">0805062</tspan></text><text class="cls-6" transform="translate(267.29 234.06) rotate(-.78)"><tspan x="0" y="0">0805061</tspan></text><text class="cls-6" transform="translate(210.98 157.79)"><tspan x="0" y="0">0805052</tspan></text><text class="cls-6" transform="translate(118.61 221.88)"><tspan x="0" y="0">0805025</tspan></text><text class="cls-6" transform="translate(120.02 248.17)"><tspan x="0" y="0">0805024</tspan></text><text class="cls-6" transform="translate(120.36 184.9)"><tspan x="0" y="0">0805030</tspan></text><text class="cls-1" transform="translate(151.38 181.62) scale(1.93 1)"><tspan x="0" y="0" xml:space="preserve">0805031   </tspan></text><text class="cls-6" transform="translate(226.38 183.37)"><tspan x="0" y="0">0805051</tspan></text><text class="cls-6" transform="translate(238.25 214.85) rotate(-.78)"><tspan x="0" y="0">0805050</tspan></text><text class="cls-6" transform="translate(133.88 160.09)"><tspan x="0" y="0">0805056</tspan></text><text class="cls-5" transform="translate(169.91 150.84) scale(1.62 1)"><tspan x="0" y="0">0805055</tspan></text><text class="cls-6" transform="translate(181.39 172.88)"><tspan x="0" y="0">0805054</tspan></text><text class="cls-13" transform="translate(42.79 215.12) scale(1.07 1)"><tspan x="0" y="0">0805027</tspan></text><text class="cls-6" transform="translate(61.05 170.17)"><tspan x="0" y="0">0805028</tspan></text><text class="cls-6" transform="translate(72.35 146.46)"><tspan x="0" y="0">0805058</tspan></text><text class="cls-6" transform="translate(111.06 123.84)"><tspan x="0" y="0">0805063</tspan></text><text class="cls-6" transform="translate(160.94 113.11)"><tspan x="0" y="0">0805065</tspan></text><text class="cls-6" transform="translate(210.48 97.75) scale(.61 1)"><tspan x="0" y="0">0805067</tspan></text><text class="cls-6" transform="translate(266.44 83.77)"><tspan x="0" y="0">0805087</tspan></text><text class="cls-6" transform="translate(333.91 93)"><tspan x="0" y="0">0805092</tspan></text><text class="cls-6" transform="translate(288.06 104.48)"><tspan x="0" y="0">0805086</tspan></text><text class="cls-6" transform="translate(234.94 118.55)"><tspan x="0" y="0">0805068</tspan></text><text class="cls-6" transform="translate(255.66 141)"><tspan x="0" y="0">0805069</tspan></text><text class="cls-6" transform="translate(325.96 152.55)"><tspan x="0" y="0">0805084</tspan></text><text class="cls-6" transform="translate(285.56 181.99)"><tspan x="0" y="0">0805071</tspan></text><text class="cls-6" transform="translate(405.55 244.56)"><tspan x="0" y="0">0805097</tspan></text><text class="cls-6" transform="translate(413.57 274.33)"><tspan x="0" y="0">0805098</tspan></text><text class="cls-6" transform="translate(351.75 208.83) rotate(-.78)"><tspan x="0" y="0">0805082</tspan></text><text class="cls-6" transform="translate(361.37 236.39) rotate(-.78)"><tspan x="0" y="0">0805081</tspan></text><text class="cls-6" transform="translate(370.67 268.32)"><tspan x="0" y="0">0805080</tspan></text><text class="cls-10" transform="translate(369.81 299.38) scale(1.83 1)"><tspan x="0" y="0">0805079</tspan></text><text class="cls-6" transform="translate(326.02 348.98)"><tspan x="0" y="0">0805077</tspan></text><text class="cls-6" transform="translate(249.17 332.46)"><tspan x="0" y="0">0805041</tspan></text><text class="cls-6" transform="translate(396.2 324.14)"><tspan x="0" y="0">0805100 </tspan></text><text class="cls-14" transform="translate(410.47 302.94) scale(.55 1)"><tspan x="0" y="0">0805099</tspan></text><text class="cls-6" transform="translate(379.18 175.42)"><tspan x="0" y="0">0805095</tspan></text><text class="cls-6" transform="translate(340.25 180.24)"><tspan x="0" y="0">0805083</tspan></text><text class="cls-6" transform="translate(309.17 235.41) rotate(-.78)"><tspan x="0" y="0">0805073</tspan></text><text class="cls-6" transform="translate(318.83 264.41) rotate(7.79)"><tspan x="0" y="0">0805074</tspan></text><text class="cls-6" transform="translate(328.46 317.79) rotate(8.57)"><tspan x="0" y="0">0805076</tspan></text><text class="cls-6" transform="translate(251.14 367.3) rotate(8.57)"><tspan x="0" y="0">0805038 </tspan></text><text class="cls-6" transform="translate(280.58 344.33) rotate(8.57)"><tspan x="0" y="0">0805040</tspan></text><text class="cls-6" transform="translate(281.67 375.07) rotate(8.57)"><tspan x="0" y="0">0805039</tspan></text><text class="cls-6" transform="translate(315.24 376.55) rotate(8.57)"><tspan x="0" y="0">0805078</tspan></text><text class="cls-6" transform="translate(324.77 290.09) rotate(8.57)"><tspan x="0" y="0">0805075</tspan></text><text class="cls-6" transform="translate(298.17 207.17) rotate(-.78)"><tspan x="0" y="0">0805072</tspan></text><text class="cls-6" transform="translate(392.99 211.66)"><tspan x="0" y="0">0805096</tspan></text><text class="cls-6" transform="translate(306.33 130.48)"><tspan x="0" y="0">0805085</tspan></text><text class="cls-6" transform="translate(271.31 160.45)"><tspan x="0" y="0">0805070</tspan></text><text class="cls-6" transform="translate(365.39 143.93)"><tspan x="0" y="0" xml:space="preserve">0805094         </tspan></text><text class="cls-6" transform="translate(349.71 114.73)"><tspan x="0" y="0">0805093</tspan></text><text class="cls-6" transform="translate(296.59 55.33)"><tspan x="0" y="0">0805090</tspan></text><text class="cls-6" transform="translate(316.46 71.97)"><tspan x="0" y="0">0805091</tspan></text><text class="cls-6" transform="translate(183.58 81.12)"><tspan x="0" y="0">0805066</tspan></text><text class="cls-6" transform="translate(237.18 57.08)"><tspan x="0" y="0">0805088</tspan></text><text class="cls-6" transform="translate(279.24 39)"><tspan x="0" y="0">0805089</tspan></text><text class="cls-6" transform="translate(181.46 309.26)"><tspan x="0" y="0">0805035</tspan></text><text class="cls-6" transform="translate(205.31 282.97)"><tspan x="0" y="0">0805043</tspan></text><text class="cls-6" transform="translate(274.11 271.1) rotate(-.78)"><tspan x="0" y="0">0805060</tspan></text><text class="cls-6" transform="translate(281.96 299.5)"><tspan x="0" y="0">0805059</tspan></text><text class="cls-6" transform="translate(245.92 272.02) rotate(-.78)"><tspan x="0" y="0">0805048</tspan></text><text class="cls-6" transform="translate(253.11 295.07)"><tspan x="0" y="0">0805047</tspan></text><text class="cls-6" transform="translate(173.9 249.6)"><tspan x="0" y="0">0805033</tspan></text><text class="cls-6" transform="translate(187.35 204.8)"><tspan x="0" y="0">0805046</tspan></text><text class="cls-6" transform="translate(179.31 277.64)"><tspan x="0" y="0">0805034</tspan></text><text class="cls-6" transform="translate(194.31 221.68)"><tspan x="0" y="0">0805045</tspan></text><text class="cls-6" transform="translate(200.15 251.51)"><tspan x="0" y="0">0805044</tspan></text><text class="cls-6" transform="translate(243.09 243.36) rotate(-.78)"><tspan x="0" y="0">0805049</tspan></text><text class="cls-6" transform="translate(161.09 219.09)"><tspan x="0" y="0">0805032</tspan></text><text class="cls-6" transform="translate(255.71 429.02)"><tspan x="0" y="0">0805017</tspan></text><text class="cls-11" transform="translate(170.11 530.95) scale(1.21 1)"><tspan x="0" y="0">0804001</tspan></text><text class="cls-11" transform="translate(149.26 550.9) scale(1.21 1)"><tspan x="0" y="0">0804003</tspan></text><text class="cls-11" transform="translate(124.57 548) scale(1.21 1)"><tspan x="0" y="0">0804006 </tspan></text><text class="cls-11" transform="translate(152.16 530.32) scale(1.21 1)"><tspan x="0" y="0">0804004</tspan></text><text class="cls-11" transform="translate(128.1 531.26) scale(1.21 1)"><tspan x="0" y="0">0804005</tspan></text><text class="cls-11" transform="translate(82.07 496.2) scale(1.21 1)"><tspan x="0" y="0">0804033</tspan></text><text class="cls-11" transform="translate(53.41 493.77) scale(1.21 1)"><tspan x="0" y="0">0804046</tspan></text><text class="cls-11" transform="translate(58.75 513.39) scale(1.21 1)"><tspan x="0" y="0">0804047</tspan></text><text class="cls-11" transform="translate(74.46 467.87) scale(1.21 1)"><tspan x="0" y="0">0804034</tspan></text><text class="cls-11" transform="translate(41.26 467.77) scale(1.21 1)"><tspan x="0" y="0">0804045</tspan></text><text class="cls-11" transform="translate(126.66 432.73) scale(1.21 1)"><tspan x="0" y="0">0804009</tspan></text><text class="cls-11" transform="translate(63.08 439.89) scale(1.21 1)"><tspan x="0" y="0">0804035</tspan></text><text class="cls-11" transform="translate(51.9 415.34) scale(1.21 1)"><tspan x="0" y="0">0804036</tspan></text><text class="cls-11" transform="translate(34.28 391) scale(1.21 1)"><tspan x="0" y="0">0804037</tspan></text><text class="cls-11" transform="translate(13.08 369.61) scale(1.21 1)"><tspan x="0" y="0">0804038</tspan></text><text class="cls-11" transform="translate(-6.88 349.81) scale(1.21 1)"><tspan x="0" y="0">0804039</tspan></text><text class="cls-11" transform="translate(30.54 438.54) scale(1.21 1)"><tspan x="0" y="0">0804044</tspan></text><text class="cls-11" transform="translate(14.59 413.69) scale(1.21 1)"><tspan x="0" y="0">0804043</tspan></text><text class="cls-8" transform="translate(-2.3 444.31) scale(.56 1)"><tspan x="0" y="0">0804052</tspan></text><text class="cls-11" transform="translate(-6.62 388.94) scale(1.21 1)"><tspan x="0" y="0">0804042</tspan></text><text class="cls-11" transform="translate(4.99 283.35) rotate(12.72) scale(1.21 1)"><tspan x="0" y="0">0804015</tspan></text><text class="cls-11" transform="translate(111.02 403.56) rotate(12.72) scale(1.21 1)"><tspan x="0" y="0">0804010</tspan></text><text class="cls-11" transform="translate(54.55 327.37) rotate(12.72) scale(1.21 1)"><tspan x="0" y="0">0804013</tspan></text><text class="cls-11" transform="translate(30.81 305.42) rotate(12.72) scale(1.21 1)"><tspan x="0" y="0">0804014 </tspan></text><text class="cls-11" transform="translate(74.39 350.35) rotate(14.69) scale(1.21 1)"><tspan x="0" y="0">0804012</tspan></text><text class="cls-11" transform="translate(97.52 376.16) rotate(12.72) scale(1.21 1)"><tspan x="0" y="0">0804011</tspan></text><text class="cls-11" transform="translate(9.04 479.25) rotate(12.72) scale(1.21 1)"><tspan x="0" y="0">0804049</tspan></text><text class="cls-11" transform="translate(21.53 501.07) rotate(12.72) scale(1.21 1)"><tspan x="0" y="0">0804048</tspan></text><text class="cls-9" transform="translate(90.28 528.02) scale(2.19 1)"><tspan x="0" y="0">0804032</tspan></text><text class="cls-11" transform="translate(146.19 491.59) scale(1.21 1)"><tspan x="0" y="0" xml:space="preserve">0804007  </tspan></text><text class="cls-2" transform="translate(135.52 461.73) scale(7.35 -1)"><tspan x="0" y="0">0804008</tspan></text><text class="cls-11" transform="translate(169.66 554.4) scale(1.21 1)"><tspan x="0" y="0">0804002 </tspan></text><text class="cls-6" transform="translate(293.04 431.65) scale(1.66 1)"><tspan x="0" y="0">0805016</tspan></text><text class="cls-6" transform="translate(194.51 392.92)"><tspan x="0" y="0">0805019</tspan></text><text class="cls-3" transform="translate(222.5 417.51) scale(1.43 1)"><tspan x="0" y="0">0805018 </tspan></text><text class="cls-6" transform="translate(152.22 337.07)"><tspan x="0" y="0">0805021</tspan></text><text class="cls-6" transform="translate(226.78 352.06)"><tspan x="0" y="0">0805037</tspan></text><text class="cls-6" transform="translate(199.61 332.53)"><tspan x="0" y="0">0805036</tspan></text><text class="cls-6" transform="translate(217.1 311.63)"><tspan x="0" y="0">0805042</tspan></text><text class="cls-6" transform="translate(356.26 505.72) rotate(-.78)"><tspan x="0" y="0">0805009 </tspan></text><text class="cls-6" transform="translate(345.72 466.74) rotate(-61.01)"><tspan x="0" y="0">0805005</tspan></text><text class="cls-6" transform="translate(325.26 462.5) rotate(-61.01)"><tspan x="0" y="0">0805006</tspan></text><text class="cls-6" transform="translate(417.09 593.4)"><tspan x="0" y="0">0805101</tspan></text><text class="cls-7" transform="translate(367.4 361.01) scale(.77 1)"><tspan x="0" y="0">0802022</tspan></text><text class="cls-6" transform="translate(442.39 426.51) scale(.75 1)"><tspan x="0" y="0">0802023</tspan></text><text class="cls-6" transform="translate(392.38 444.49) scale(.77 1)"><tspan x="0" y="0">0802020</tspan></text><text class="cls-6" transform="translate(380.13 423.36) scale(.77 1)"><tspan x="0" y="0">0802021</tspan></text><text class="cls-6" transform="translate(406.99 453.82) scale(.77 1)"><tspan x="0" y="0">0802019</tspan></text><text class="cls-6" transform="translate(432.78 471.38) scale(.77 1)"><tspan x="0" y="0">0802018</tspan></text><text class="cls-6" transform="translate(440.48 514.82) scale(.77 1)"><tspan x="0" y="0">0802015</tspan></text><text/><text/></g></svg>